<?xml version="1.0" encoding="UTF-8"?>
<!DOCTYPE svg PUBLIC "-//W3C//DTD SVG 1.1//EN" "http://www.w3.org/Graphics/SVG/1.1/DTD/svg11.dtd">
<svg xmlns="http://www.w3.org/2000/svg" version="1.1" width="948px" height="492px" style="shape-rendering:geometricPrecision; text-rendering:geometricPrecision; image-rendering:optimizeQuality; fill-rule:evenodd; clip-rule:evenodd" xmlns:xlink="http://www.w3.org/1999/xlink">
<g><path style="opacity:0.934" fill="#00597d" d="M 174.5,-0.5 C 182.167,-0.5 189.833,-0.5 197.5,-0.5C 214.233,3.79886 228.066,12.7989 239,26.5C 250.4,40.6286 257.4,56.6286 260,74.5C 257.88,77.0801 255.713,77.0801 253.5,74.5C 248.193,53.0336 237.193,35.2003 220.5,21C 187.058,1.31895 159.891,7.81895 139,40.5C 130.757,56.1402 126.59,72.8068 126.5,90.5C 152.426,87.708 178.426,86.8747 204.5,88C 209.563,88.2479 214.563,88.9145 219.5,90C 221.67,95.6709 219.67,97.8376 213.5,96.5C 184.381,94.5226 155.381,95.5226 126.5,99.5C 126.273,112.899 127.106,126.232 129,139.5C 140.073,139.7 151.239,139.7 162.5,139.5C 162.739,141.467 162.406,143.301 161.5,145C 151.82,145.471 142.153,146.138 132.5,147C 131.484,147.519 130.818,148.353 130.5,149.5C 132.588,162.522 135.922,175.188 140.5,187.5C 166.16,185.601 191.16,180.435 215.5,172C 220.374,168.547 225.708,166.88 231.5,167C 232.293,168.085 232.96,169.252 233.5,170.5C 232.363,173.47 230.363,175.636 227.5,177C 201.685,190.121 174.352,197.954 145.5,200.5C 151.497,218.168 160.33,234.168 172,248.5C 203.76,243.469 233.927,233.635 262.5,219C 268.5,215 274.5,211 280.5,207C 285.833,201.667 291.167,196.333 296.5,191C 291.876,181.579 286.376,172.745 280,164.5C 277.693,158.479 279.36,157.145 285,160.5C 290.755,168.336 295.755,176.669 300,185.5C 313.949,161.167 310.782,139.333 290.5,120C 286,116.915 281.333,114.082 276.5,111.5C 274.599,110.065 274.266,108.398 275.5,106.5C 277.421,105.359 279.421,105.192 281.5,106C 313.076,120.65 324.576,144.817 316,178.5C 313.009,185.815 309.509,192.815 305.5,199.5C 311.586,220.838 313.086,242.505 310,264.5C 304.899,290.6 289.399,306.433 263.5,312C 234.409,314.563 208.409,306.897 185.5,289C 177.554,282.854 170.22,276.021 163.5,268.5C 162.167,268.167 160.833,267.833 159.5,267.5C 125.114,272.945 90.781,272.778 56.5,267C 37.323,263.498 21.1563,254.665 8,240.5C 4.10455,235.281 1.27122,229.614 -0.5,223.5C -0.5,217.5 -0.5,211.5 -0.5,205.5C 5.2367,189.586 15.57,177.419 30.5,169C 24.8773,154.89 26.7106,141.723 36,129.5C 45.68,119.07 57.18,111.237 70.5,106C 81.8515,101.382 93.5182,97.8822 105.5,95.5C 105.615,72.0305 111.782,50.3639 124,30.5C 136.864,13.6536 153.697,3.32026 174.5,-0.5 Z M 101.5,104.5 C 102.833,104.5 104.167,104.5 105.5,104.5C 105.318,117.475 106.318,130.309 108.5,143C 87.5013,146.123 67.3346,151.956 48,160.5C 41.8326,150.976 42.1659,141.643 49,132.5C 54.4984,126.01 60.9984,120.843 68.5,117C 79.3487,112.111 90.3487,107.944 101.5,104.5 Z M 105.5,150.5 C 106.833,150.5 108.167,150.5 109.5,150.5C 111.377,163.007 114.044,175.34 117.5,187.5C 97.5243,187.006 78.5243,182.506 60.5,174C 57.8723,172.374 55.539,170.374 53.5,168C 70.2981,160.234 87.6314,154.401 105.5,150.5 Z M 36.5,178.5 C 52.0344,190.63 69.701,197.796 89.5,200C 100.839,201.119 112.172,202.286 123.5,203.5C 130.502,220.344 139.168,236.177 149.5,251C 118.572,255.284 87.9057,253.95 57.5,247C 44.319,244.17 33.4857,237.67 25,227.5C 17.6667,215.5 17.6667,203.5 25,191.5C 28.6699,186.998 32.5032,182.665 36.5,178.5 Z M 299.5,204.5 C 301.045,205.23 301.878,206.563 302,208.5C 307.208,229.712 306.541,250.712 300,271.5C 289.697,294.739 271.864,304.573 246.5,301C 221.314,295.242 200.314,282.575 183.5,263C 210.306,257.176 235.973,248.176 260.5,236C 274.347,228.32 286.847,218.82 298,207.5C 298.513,206.473 299.013,205.473 299.5,204.5 Z"/></g>
<g><path style="opacity:0.95" fill="#00597d" d="M 363.5,204.5 C 379.351,204.183 386.184,211.849 384,227.5C 378.677,237.723 370.51,240.889 359.5,237C 349.847,230.4 347.68,221.9 353,211.5C 355.998,208.262 359.498,205.929 363.5,204.5 Z"/></g>
<g><path style="opacity:0.946" fill="#00597d" d="M 823.5,204.5 C 839.919,204.414 846.753,212.414 844,228.5C 837.47,238.803 828.637,241.303 817.5,236C 810.557,229.818 808.724,222.318 812,213.5C 814.683,208.922 818.517,205.922 823.5,204.5 Z"/></g>
<g><path style="opacity:0.981" fill="#00597d" d="M 947.5,207.5 C 947.5,254.5 947.5,301.5 947.5,348.5C 936.44,352.575 925.107,355.741 913.5,358C 902.873,359.478 892.206,359.812 881.5,359C 866.806,355.974 857.639,347.14 854,332.5C 850.395,312.751 850.728,293.085 855,273.5C 862.052,254.972 875.552,246.305 895.5,247.5C 903.224,247.604 910.891,248.271 918.5,249.5C 918.5,235.5 918.5,221.5 918.5,207.5C 928.167,207.5 937.833,207.5 947.5,207.5 Z M 896.5,272.5 C 903.819,273.299 911.153,273.965 918.5,274.5C 918.5,293.167 918.5,311.833 918.5,330.5C 910.602,332.414 902.602,333.248 894.5,333C 886.642,330.456 882.475,324.956 882,316.5C 881.135,306.448 881.469,296.448 883,286.5C 885.052,279.284 889.552,274.617 896.5,272.5 Z"/></g>
<g><path style="opacity:0.965" fill="#00597d" d="M 425.5,356.5 C 415.5,356.5 405.5,356.5 395.5,356.5C 395.333,324.165 395.5,291.832 396,259.5C 417.148,249.871 439.314,246.038 462.5,248C 473.602,249.799 481.102,255.966 485,266.5C 487.099,272.326 488.432,278.326 489,284.5C 489.5,308.831 489.667,333.164 489.5,357.5C 479.5,357.5 469.5,357.5 459.5,357.5C 459.667,333.831 459.5,310.164 459,286.5C 457.504,277.83 452.337,273.497 443.5,273.5C 437.648,274.07 431.981,275.404 426.5,277.5C 425.5,303.825 425.167,330.158 425.5,356.5 Z"/></g>
<g><path style="opacity:0.966" fill="#00597d" d="M 533.5,247.5 C 548.362,245.579 562.362,248.079 575.5,255C 583.879,262.256 588.712,271.423 590,282.5C 590.667,291.5 590.667,300.5 590,309.5C 589.764,311.764 589.264,313.931 588.5,316C 567.836,316.5 547.169,316.667 526.5,316.5C 528.089,332.157 536.755,338.323 552.5,335C 565.886,330.736 579.552,327.903 593.5,326.5C 599.573,326.79 605.573,327.623 611.5,329C 619.722,331.741 628.056,334.074 636.5,336C 641.687,337.055 646.52,336.222 651,333.5C 653.587,328.587 652.753,324.42 648.5,321C 636.266,317.349 623.933,314.015 611.5,311C 600.265,305.213 594.932,295.88 595.5,283C 596.096,262.148 606.763,250.481 627.5,248C 645.03,247.191 662.363,248.691 679.5,252.5C 679.518,260.851 679.185,269.184 678.5,277.5C 665.545,275.838 652.545,274.504 639.5,273.5C 635.427,274.012 631.427,274.845 627.5,276C 624.923,279.405 624.923,282.738 627.5,286C 640.312,288.828 652.979,292.162 665.5,296C 679.163,303.496 684.663,314.996 682,330.5C 679.886,347.281 670.386,356.781 653.5,359C 645.833,359.667 638.167,359.667 630.5,359C 622.713,357.071 615.046,354.738 607.5,352C 598.923,349.19 590.256,348.856 581.5,351C 515.93,374.1 488.43,351.267 499,282.5C 503.387,263.614 514.887,251.947 533.5,247.5 Z M 539.5,271.5 C 555.599,269.931 563.266,277.264 562.5,293.5C 550.5,293.5 538.5,293.5 526.5,293.5C 526.015,285.916 528.348,279.416 533.5,274C 535.723,273.434 537.723,272.6 539.5,271.5 Z"/></g>
<g><path style="opacity:0.968" fill="#00597d" d="M 722.5,247.5 C 738.357,246.76 754.024,248.094 769.5,251.5C 768.977,259.49 768.644,267.49 768.5,275.5C 756.168,273.614 743.835,273.447 731.5,275C 726,276.5 722.5,280 721,285.5C 719,297.167 719,308.833 721,320.5C 721.964,324.468 724.131,327.635 727.5,330C 732.744,332.316 738.244,333.482 744,333.5C 752.181,332.909 760.348,332.243 768.5,331.5C 768.644,339.51 768.977,347.51 769.5,355.5C 752.307,359.494 734.974,360.327 717.5,358C 705.859,355.027 698.026,347.86 694,336.5C 691.901,330.674 690.568,324.674 690,318.5C 688.906,304.395 689.573,290.395 692,276.5C 695.197,263.899 702.697,255.065 714.5,250C 717.379,249.454 720.046,248.621 722.5,247.5 Z"/></g>
<g><path style="opacity:0.95" fill="#00597d" d="M 352.5,249.5 C 362.5,249.5 372.5,249.5 382.5,249.5C 382.5,285.5 382.5,321.5 382.5,357.5C 372.5,357.5 362.5,357.5 352.5,357.5C 352.5,321.5 352.5,285.5 352.5,249.5 Z"/></g>
<g><path style="opacity:0.95" fill="#00597d" d="M 812.5,249.5 C 822.5,249.5 832.5,249.5 842.5,249.5C 842.5,285.5 842.5,321.5 842.5,357.5C 832.5,357.5 822.5,357.5 812.5,357.5C 812.5,321.5 812.5,285.5 812.5,249.5 Z"/></g>
<g><path style="opacity:0.955" fill="#9fc518" d="M 267.5,336.5 C 282.848,336.68 289.348,344.347 287,359.5C 282.439,369.028 274.939,372.528 264.5,370C 253.997,364.81 250.831,356.643 255,345.5C 258.236,341.082 262.402,338.082 267.5,336.5 Z"/></g>
<g><path style="opacity:0.982" fill="#9fc518" d="M 208.5,338.5 C 218.167,338.5 227.833,338.5 237.5,338.5C 237.5,388.833 237.5,439.167 237.5,489.5C 227.833,489.5 218.167,489.5 208.5,489.5C 208.5,439.167 208.5,388.833 208.5,338.5 Z"/></g>
<g><path style="opacity:0.969" fill="#9fc419" d="M 395.5,356.5 C 405.5,356.5 415.5,356.5 425.5,356.5C 425.334,365.839 425.5,375.173 426,384.5C 439.816,377.669 453.983,376.836 468.5,382C 479.479,387.104 486.312,395.604 489,407.5C 491.397,421.404 492.064,435.404 491,449.5C 489.997,474.66 477.164,488.66 452.5,491.5C 442.833,491.5 433.167,491.5 423.5,491.5C 414.313,490.398 404.98,489.398 395.5,488.5C 395.5,444.5 395.5,400.5 395.5,356.5 Z M 437.5,405.5 C 447.287,403.58 454.454,406.914 459,415.5C 461.935,427.405 462.268,439.405 460,451.5C 456.373,461.25 449.207,465.917 438.5,465.5C 434.202,464.703 429.868,464.37 425.5,464.5C 425.333,445.83 425.5,427.164 426,408.5C 429.917,407.439 433.751,406.439 437.5,405.5 Z"/></g>
<g><path style="opacity:0.968" fill="#9fc518" d="M 558.5,491.5 C 551.167,491.5 543.833,491.5 536.5,491.5C 514.656,487.15 502.156,473.817 499,451.5C 497,440.5 497,429.5 499,418.5C 503.471,391.209 519.638,377.876 547.5,378.5C 575.615,378.277 591.782,391.944 596,419.5C 597.663,433.232 596.996,446.898 594,460.5C 588.471,478.204 576.637,488.537 558.5,491.5 Z M 541.5,404.5 C 555.519,401.915 563.686,407.582 566,421.5C 566.875,432.217 566.541,442.884 565,453.5C 561.439,463.701 554.273,467.868 543.5,466C 534.878,463.972 530.045,458.472 529,449.5C 526.97,438.432 527.304,427.432 530,416.5C 532.045,410.624 535.878,406.624 541.5,404.5 Z"/></g>
<g><path style="opacity:0.972" fill="#9fc518" d="M 648.5,491.5 C 641.167,491.5 633.833,491.5 626.5,491.5C 613.06,488.557 605.227,480.224 603,466.5C 602.333,459.833 602.333,453.167 603,446.5C 605.583,434.275 613.083,427.109 625.5,425C 637.772,423.171 650.106,422.004 662.5,421.5C 662.79,417.064 662.29,412.73 661,408.5C 659.786,406.951 658.286,405.785 656.5,405C 640.829,404.581 625.162,404.747 609.5,405.5C 609.242,398.563 609.242,391.73 609.5,385C 629.605,379.222 649.938,377.889 670.5,381C 682.192,384.027 689.026,391.527 691,403.5C 691.833,429.173 691.666,454.84 690.5,480.5C 676.7,485.449 662.7,489.115 648.5,491.5 Z M 654.5,442.5 C 657.167,442.5 659.833,442.5 662.5,442.5C 662.5,449.833 662.5,457.167 662.5,464.5C 656.065,465.824 649.565,466.824 643,467.5C 638.268,467.802 634.935,465.802 633,461.5C 632.333,457.833 632.333,454.167 633,450.5C 633.785,448.714 634.951,447.214 636.5,446C 642.512,444.269 648.512,443.102 654.5,442.5 Z"/></g>
<g><path style="opacity:0.967" fill="#9fc518" d="M 354.5,491.5 C 346.167,491.5 337.833,491.5 329.5,491.5C 320.26,490.033 310.926,488.366 301.5,486.5C 301.119,478.212 301.119,469.878 301.5,461.5C 314.115,463.198 326.782,464.531 339.5,465.5C 345.041,465.405 350.208,464.071 355,461.5C 357.45,457.511 356.617,454.344 352.5,452C 340.088,449.32 327.755,446.32 315.5,443C 307.48,439.649 302.313,433.816 300,425.5C 296.492,394.337 310.492,379.004 342,379.5C 354.968,379.808 367.801,381.308 380.5,384C 382.452,392.23 383.118,400.73 382.5,409.5C 365.899,406.56 349.232,405.726 332.5,407C 329.009,408.821 327.843,411.654 329,415.5C 329.5,416.667 330.333,417.5 331.5,418C 342.765,420.92 354.098,423.587 365.5,426C 374.598,428.766 380.765,434.599 384,443.5C 390.58,470.06 380.747,486.06 354.5,491.5 Z"/></g>
<g><path style="opacity:0.956" fill="#9fc518" d="M 255.5,381.5 C 265.5,381.5 275.5,381.5 285.5,381.5C 285.5,417.5 285.5,453.5 285.5,489.5C 275.5,489.5 265.5,489.5 255.5,489.5C 255.5,453.5 255.5,417.5 255.5,381.5 Z"/></g>
</svg>
